<svg xmlns="http://www.w3.org/2000/svg" version="1.1" xmlns:xlink="http://www.w3.org/1999/xlink" xmlns:svgjs="http://svgjs.dev/svgjs" width="1500" height="997" viewBox="0 0 1500 997"><g transform="matrix(1,0,0,1,-0.4634433962263529,-1.4106489361699914)"><svg viewBox="0 0 212 141" data-background-color="#ffffff" preserveAspectRatio="xMidYMid meet" height="997" width="1500" xmlns="http://www.w3.org/2000/svg" xmlns:xlink="http://www.w3.org/1999/xlink"><g id="tight-bounds" transform="matrix(1,0,0,1,0.0654999999999859,0.19949999999997203)"><svg viewBox="0 0 211.86885802816903 140.60052000000002" height="140.60052000000002" width="211.86885802816903"><g><svg viewBox="0 0 211.86885802816903 140.60052000000002" height="140.60052000000002" width="211.86885802816903"><g><svg viewBox="0 0 211.86885802816903 140.60052000000002" height="140.60052000000002" width="211.86885802816903"><g><path d="M0 140.601v-140.601h211.869v140.601z" fill="#8eb4e5" stroke="transparent" stroke-width="0" rx="0%" data-fill-palette-color="tertiary"></path><path d="M3.283 137.317v-134.034h205.303v134.034z" fill="#ffffff" stroke="transparent" stroke-width="0" rx="0%" data-fill-palette-color="quaternary"></path><path d="M9.85 130.751v-120.901h192.169v120.901z" fill="#8eb4e5" stroke="transparent" stroke-width="0" data-fill-palette-color="tertiary"></path></g><g transform="matrix(1,0,0,1,19.69974,19.69974)" id="textblocktransform"><svg viewBox="0 0 172.46937802816905 101.20104000000002" height="101.20104000000002" width="172.46937802816905" id="textblock"><g><svg viewBox="0 0 172.46937802816905 101.20104000000002" height="101.20104000000002" width="172.46937802816905"><g transform="matrix(1,0,0,1,0,0)"><svg width="172.46937802816905" viewBox="3.78 -31.95 54.44 31.95" height="101.20104000000002" data-palette-color="#ffffff"><path d="M7.93-31.95L7.93 0 3.78 0 3.78-31.95 7.93-31.95ZM27.23-31.95L27.23 0 23.08 0 23.08-31.95 27.23-31.95ZM6.15-14.73L6.15-18.23 24.73-18.23 24.73-14.73 6.15-14.73ZM34.77-31.95L41.07-31.95 54.05-4.45 54.35-4.45 54.17-18.4 54.17-31.95 58.22-31.95 58.22 0 52.07 0 38.95-27.73 38.65-27.73 38.82-13.13 38.82 0 34.77 0 34.77-31.95Z" opacity="1" transform="matrix(1,0,0,1,0,0)" fill="#ffffff" class="wordmark-text-0" data-fill-palette-color="quaternary" id="text-0"></path></svg></g></svg></g></svg></g></svg></g><g></g></svg></g><defs></defs></svg><rect width="211.86885802816903" height="140.60052000000002" fill="none" stroke="none" visibility="hidden"></rect></g></svg></g></svg>